# xmcd CD database file
#
# Track frame offsets:
#	150
#	29709
#	54377
#	75198
#	96908
#	130869
#	157926
#	174530
#	198329
#	220647
#	248310
#	292958
#
# Disc length: 4106 seconds
#
# Revision: 0
# Processed by: cddbd v1.5.1PL0 Copyright (c) Steve Scherf et al.
# Submitted via: CDex 1.51
#
DISCID=9210080c
DTITLE=The New Black Eagle Jazz Band - The New Black Eagle Jazzband At Symphony Hall
DYEAR=1981
DGENRE=Jazz
TTITLE0=Buddy's Habit
TTITLE1=Poctology
TTITLE2=She's Crying For Me
TTITLE3=Polka Dots And Moonbeams
TTITLE4=Nuages
TTITLE5=Shake It And Brake It
TTITLE6=Grandpa's Spells
TTITLE7=Creepy Feeling
TTITLE8=Bogalusa Strut
TTITLE9=Apex Blues
TTITLE10=Old Rugged Cross
TTITLE11=Sweetie Dear
EXTD=YEAR: 1981
EXTT0=
EXTT1=
EXTT2=
EXTT3=
EXTT4=
EXTT5=
EXTT6=
EXTT7=
EXTT8=
EXTT9=
EXTT10=
EXTT11=
PLAYORDER=
